<?xml version="1.0" encoding="utf-8"?>
<!-- Generator: Adobe Illustrator 23.0.2, SVG Export Plug-In . SVG Version: 6.00 Build 0)  -->
<svg version="1.1" id="Livello_1" xmlns="http://www.w3.org/2000/svg" xmlns:xlink="http://www.w3.org/1999/xlink" x="0px" y="0px"
	 viewBox="0 0 841.9 595.3" style="enable-background:new 0 0 841.9 595.3;" xml:space="preserve">
<style type="text/css">
	.st0{clip-path:url(#SVGID_2_);}
	.st1{clip-path:url(#SVGID_4_);fill:#005CA9;}
</style>
<g>
	<defs>
		<rect id="SVGID_1_" width="841.9" height="595.3"/>
	</defs>
	<clipPath id="SVGID_2_">
		<use xlink:href="#SVGID_1_"  style="overflow:visible;"/>
	</clipPath>
	<path class="st0" d="M100.4,448.7H89.2l-0.3,0c-0.2,0-0.6,0-0.8,0.4c-0.1,0.2-0.1,0.4-0.1,0.8v44.6c0,0.5,0,1.2,0.9,1.2l11.5,0
		c0.8,0,1.2-0.2,1.2-1.2v-44.6C101.7,448.9,101.2,448.7,100.4,448.7"/>
	<path class="st0" d="M152.2,448.7h-35.8c-1.1,0-1.1,0.7-1.1,1.2v8.7c0,0.6,0.2,1,1,1l11.3-0.1v34.9c0,0.5,0,1.2,0.9,1.2l11.4,0
		c0.8,0,1.2-0.3,1.2-1.2v-34.9l11,0.1c0.7,0,1-0.3,1-1V450C153.3,449.6,153.3,448.7,152.2,448.7"/>
	<path class="st0" d="M195.1,475.3c-7.2-1.4-8.6-3.4-8.6-6.2c0-3.6,2.7-5.5,7.8-5.5c4.2,0,7.1,1.8,8.6,5.4c0.2,0.4,0.5,1.1,1.2,1.1
		c0.2,0,0.4-0.1,0.6-0.2l1.7-0.8c0.9-0.4,1.2-0.9,0.8-1.8c-2.1-5.1-6.6-8-12.7-8c-7.9,0-12.6,3.7-12.6,9.8c0,7,4.2,9.2,12.1,10.7
		c8.5,1.7,9.2,4.3,9.2,7c0,4.7-4.6,5.7-8.4,5.7c-5.8,0-8.5-3.3-9.6-6c-0.2-0.4-0.4-0.9-0.9-0.9c-0.3,0-0.5,0.1-0.8,0.3l-2,0.8
		c-0.2,0.1-0.6,0.3-0.7,0.6c-0.1,0.4,0,0.7,0.2,1.2c2.3,5.4,7.2,8.3,13.9,8.3c8.4,0,13.2-3.9,13.2-10.8
		C207.8,480.5,203.5,476.9,195.1,475.3"/>
	<path class="st0" d="M275.3,478.1c0,8.6-4.8,14-12.6,14c-6.9,0-12.4-6.3-12.4-14c0-8.7,4.8-14.1,12.4-14.1
		C268.9,464,275.3,468.8,275.3,478.1 M278.5,460.4h-2.4c-0.9,0-1,0.7-1,1.2v4c-3-3.7-7.6-5.8-12.8-5.8c-10.1,0-16.7,7.3-16.7,18.6
		c0,10.4,7.2,18,17,18c5.1,0,9.9-2.2,12.4-5.5v3.6c0,0.3,0,1.2,1.1,1.2h2.2c1,0,1.2-0.7,1.2-1.3v-32.9
		C279.6,461.2,279.4,460.4,278.5,460.4"/>
	<path class="st0" d="M309.9,492.2l-0.2-0.5c-0.2-0.7-0.5-1.1-1-1.1c-0.1,0-0.3,0-0.5,0.2c-0.7,0.5-2.3,1.1-4,1.1
		c-2.6,0-3.9-1.6-3.9-4.7v-22.3l6.1,0c0.5,0,1.3-0.4,1.3-1.2v-2.4c0-0.8-0.8-0.8-1.2-0.8h-6.1v-7.4c0-1-0.3-1.4-1.3-1.4h-2.2
		c-1.1,0-1.1,0.8-1.1,1.2v7.5h-3.7c-0.5,0-1,0.5-1,1.1v2.1c0,0.6,0.1,1.2,1,1.2h3.6v22.8c0,5.7,4,8.7,8.1,8.7c1.9,0,3.5-0.4,5.7-1.3
		c0.9-0.3,0.9-0.6,0.7-1.5C310.2,493.2,310,492.7,309.9,492.2"/>
	<path class="st0" d="M373.5,460.4h-2.6c-0.6,0-1,0.2-1.3,0.9c-3.4,9.2-7.5,20.5-9,24.8c-1.8-3.6-6-12.7-9.5-20.1l-2.2-4.8
		c-0.2-0.4-0.4-0.8-1.1-0.8h-2.8c-0.3,0-0.8,0-1,0.4c-0.2,0.4,0,0.8,0.1,1c5.8,12.2,13.3,27.5,14.4,29.7c-0.2,0.6-0.8,1.9-1.6,3.8
		c-1.1,2.7-2.6,6.4-4.2,10.1c-0.1,0.2-0.3,0.7,0,1.1c0.2,0.4,0.7,0.4,0.9,0.4h2.6c0.5,0,0.8-0.2,1-0.8l1.8-4.5
		c4.7-11.9,8.4-21.3,15.4-39.8c0.1-0.3,0.2-0.7-0.1-1.1C374.1,460.6,373.9,460.4,373.5,460.4"/>
	<path class="st0" d="M400.8,492.6c-7.8,0-13.9-6.3-13.9-14.4c0-8.2,6-14.5,13.9-14.5c7.8,0,13.9,6.4,13.9,14.5
		C414.7,486.5,408.8,492.6,400.8,492.6 M400.8,459.4c-11,0-18.6,7.7-18.6,18.7c0,10.8,7.8,18.7,18.6,18.7c11,0,18.6-7.7,18.6-18.7
		C419.4,467.1,411.7,459.4,400.8,459.4"/>
	<path class="st0" d="M460.1,460.4h-2.4c-1,0-1,0.8-1,1.2v20.9c-1.1,5.3-5.9,9.4-11,9.4c-5.3,0-8.5-3.6-8.5-9.4v-20.8
		c0-0.9-0.2-1.3-1.1-1.3h-2.4c-1,0-1,0.8-1,1.3v21.4c0,8.1,4.8,13.2,12.6,13.2c4.3,0,9-2.2,11.4-5.3v3.3c0,0.9,0.2,1.4,1.2,1.4h2.4
		c1,0,1-0.8,1-1.2v-32.8C461.2,460.8,461.1,460.4,460.1,460.4"/>
	<path class="st0" d="M489.8,459.8c-4.1,0-7.2,1.5-9.3,4.4v-2.6c0-0.7-0.3-1.1-1-1.1H477c-0.8,0-1.1,0.2-1.1,1.1v33
		c0,1,0.6,1.2,1,1.2h2.6c0.7,0,1-0.4,1-1.2v-22c1-5.1,4.4-8.4,8.6-8.4c4.2,0,5.5,2.2,6.2,5.5c0.1,0.3,0.3,0.4,0.5,0.4
		c0.4,0,1,0,1.4-0.2c0.8-0.3,1.6-1.1,2.1-1.9c0.1-0.1,0.1-0.3,0.1-0.4C498.8,463,494.8,459.8,489.8,459.8"/>
	<path class="st0" d="M549.1,475.3c-7.2-1.4-8.6-3.4-8.6-6.2c0-3.6,2.7-5.5,7.8-5.5c4.2,0,7.1,1.8,8.6,5.4c0.2,0.4,0.5,1.1,1.2,1.1
		c0.2,0,0.4,0,0.6-0.1l1.7-0.8c0.9-0.4,1.2-0.9,0.8-1.8c-2.1-5.1-6.6-8-12.7-8c-7.9,0-12.6,3.7-12.6,9.8c0,7,4.2,9.2,12.1,10.7
		c8.5,1.7,9.2,4.3,9.2,7c0,4.7-4.6,5.7-8.4,5.7c-5.8,0-8.5-3.3-9.6-6c-0.2-0.4-0.4-0.9-1-0.9c-0.3,0-0.5,0.1-0.8,0.3l-2,0.8
		c-0.2,0.1-0.6,0.3-0.7,0.6c-0.1,0.4,0,0.7,0.2,1.2c2.3,5.4,7.3,8.3,13.9,8.3c8.4,0,13.2-3.9,13.2-10.8
		C561.8,480.5,557.5,476.9,549.1,475.3"/>
	<path class="st0" d="M579.5,452h-2.8c-0.3,0-1,0.1-1,1.1v2.7c0,0.3,0,1.2,1,1.2h2.9c0.5,0,1.2-0.1,1.2-1.1v-2.8
		C580.7,452,579.9,452,579.5,452"/>
	<path class="st0" d="M579.3,460.4H577c-0.7,0-1.1,0.4-1.1,1.1v32.7c0,1,0.2,1.4,1.2,1.4h2.2c1,0,1.2-0.5,1.2-1.2v-32.9
		C580.5,460.6,580,460.4,579.3,460.4"/>
	<path class="st0" d="M622.7,478.1c0,8.6-4.9,13.9-12.7,13.9c-6.9,0-12.3-6.1-12.3-13.9c0-8.7,4.7-14.1,12.3-14.1
		C617.3,464,622.7,469.9,622.7,478.1 M626,447.8h-2.4c-1.1,0-1.1,0.9-1.1,1.2v16.6c-3.1-3.8-7.4-5.9-12.4-5.9
		c-10.4,0-17,7.3-17,18.6c0,10.4,7.1,18,16.9,18c5.5,0,10.2-2.6,12.6-5.4v3.5c0,1.1,0.7,1.2,1.1,1.2h2.3c1.2,0,1.2-0.9,1.2-1.3
		v-45.5C627.1,448.4,627,447.8,626,447.8"/>
	<path class="st0" d="M670.2,475.5h-25.1c0.7-6.7,6.4-11.9,13.2-11.9C665.5,463.6,669.6,469.5,670.2,475.5 M658.4,459.4
		c-10.8,0-18.1,7.5-18.1,18.7c0,11.3,7.3,18.7,18.5,18.7c4.5,0,8.2-1.3,11.8-4.2c0.2-0.2,0.3-0.4,0.3-0.5c0-0.3-0.2-0.6-0.3-0.7
		c0,0,0-0.1-0.1-0.1c-0.7-1-0.9-1.2-1.5-1.9l-0.2-0.2c-0.3-0.3-1-0.4-1.3-0.1c-0.9,0.8-4,3.5-8.7,3.5c-9,0-13.5-6.5-14-12.7h27.5
		c0.5,0,1.1-0.1,1.5-0.6c0.7-1,0.8-1.7,0.8-3.4C674.8,469.2,669.6,459.4,658.4,459.4"/>
</g>
<polygon points="164.5,448.7 180.2,448.8 164.6,469.1 "/>
<g>
	<defs>
		<rect id="SVGID_3_" width="841.9" height="595.3"/>
	</defs>
	<clipPath id="SVGID_4_">
		<use xlink:href="#SVGID_3_"  style="overflow:visible;"/>
	</clipPath>
	<path class="st1" d="M493.5,321.6C493.5,321.6,493.5,321.6,493.5,321.6l1.1-1.1l-2.6,2.4L493.5,321.6z M740.4,136.7
		c0.1-2.2-2.5-2.7-2.5-2.7h-5.5v5.5h5.7C738.5,139.5,740.3,138.9,740.4,136.7 M743.9,136.8c-0.1,3.8-3.9,5.6-3.9,5.6l3.8,7.2l-3.7,0
		l-3.4-6.8h-4.2v6.8h-3.2v-18.7c0,0,8.7,0.1,9.8,0.1C740.3,131,744,133,743.9,136.8 M749.2,140.3c0-7.4-6-13.4-13.4-13.4
		c-7.4,0-13.4,6-13.4,13.4c0,7.4,6,13.4,13.4,13.4C743.2,153.7,749.2,147.7,749.2,140.3 M750.3,140.3c0,8-6.5,14.6-14.6,14.6
		c-8,0-14.6-6.5-14.6-14.6c0-8,6.5-14.6,14.6-14.6C743.8,125.8,750.3,132.3,750.3,140.3 M668.8,180.4c-4.7,10.7-16.4,17.3-27.3,11.4
		c-1.8-1-2.9-2.1-6.3-4.2c-3.4-2.1-8.3-4.5-19.7-7.1c-4.9-1.1-10.6-1.7-15.4-1.6c-13.5,0.3-21.5,3.8-27.9,9.3
		c-6.4,5.5-9.4,12.2-8.4,18.2c1.1,6.4,4.9,10.7,12.8,14.1c8.3,3.6,24.3,7.4,31.8,9.1h0.1c9.4,2.2,17.8,4.9,25.2,8.6
		c18.6,9.3,32.3,24.2,31.9,49.5c-0.2,14.5-3.8,23.9-11.2,34.4c-10.2,14.4-26.4,26.2-44.3,30.8c-18.8,4.9-29.9,5-42.3,4.1
		c-29.3-2.1-48.8-16.7-48.8-16.7c-9.7-5.3-14.4-12.7-9.4-24.1c5.5-12.4,20-19,32.6-7.7c6.3,5.7,25.7,10.8,30.2,11.5
		c8.9,1.4,22.9,0.3,33.4-3.9c10.4-4.2,16.6-14.5,18.6-19c2-4.5,1.9-13-3.9-19.7c-5.9-6.7-15.7-9.4-15.7-9.4
		c-4.8-1.4-27.6-7.3-27.6-7.3c-32.6-7-53.3-25.4-53.3-54.1c0-11.5,4.1-23,11-32.5l-0.1,0c7-8.7,20.4-21.9,37.8-27.1
		c9.5-2.9,20.1-5.1,31.4-5.3c30.4-0.6,55.6,14.7,55.6,14.7C669.2,161.7,673.8,169.1,668.8,180.4 M510.4,196.3
		c-5.5,12.4-22.1,17.7-32.5,7.5l-1.1-1.2c-6.8-7.9-15.5-14.3-25.3-18.6c-27.3-11.8-70.8-0.6-92.3,37.7
		c-20.7,36.9-4.6,80.3,28.9,94.1c27.6,11.3,57.5,1.6,78.4-18.7l0,0c6.6-5.6,16.6-9.3,24.9-4.2c10.2,6.2,11.4,20.1,2.2,28.7
		c-32.3,31.7-79.3,46.4-123.3,29.2c-54.4-21.3-79-84.6-46.3-145c32.3-59.7,104.9-74.3,145.3-56.8c13.6,5.9,25.2,14.3,35.9,25.3
		C511.3,180.3,514.6,186.7,510.4,196.3 M299.8,290.8l10.8,37c1.3,4.5,1.5,9.8-0.8,14.6c-6.8,14.4-26.9,15.2-33.9,7.5
		c-1.7-1.8-2.8-3.9-3.5-6.1l-9.3-28l-43.9,0c-4.3-0.1-8.2-1.3-10.7-3.8c-7.9-7.9-5.9-18.1-2.7-23.8c6.1-11,16.7-9.9,22.9-9.8
		l39.9-0.1l15.3,0c3.9,0.1,7.9,1.7,11.1,4.7C297.5,285.3,299,288,299.8,290.8 M284.1,254.5c-5.2,11.1-18,13.9-26.5,10.9
		c-0.1,0-0.3-0.1-0.3-0.1l0,0c-2-0.8-4-2.2-5.3-3.6c-1.9-2.1-3.1-4.5-3.8-7.1l0,0l-12.8-51.3c-0.3-1-0.8-1.8-1.8-1.8
		c-1,0-1.2,0.5-1.8,1.8l-67.1,140.1c-6.6,14-24.4,14.6-31.6,7.4c-7.3-7.3-6.1-16.2-3-21.9c0.3-0.6,0.7-1.7,1.1-2.2l82.6-167.3
		c6.2-12.9,23-18.5,36.7-13.1c6.6,2.6,10.5,8.1,12.4,14.4l0.1,0l22.4,79.3C286.6,245.3,286.4,249.6,284.1,254.5 M769,88.4
		c-34.1,0-512.9,0-543.3,0c-30.4,0-43.9,10.8-56.1,34.6c-7.1,13.8-96.4,192.9-114.6,234.6C41,389.7,65.6,411,88.8,411h550.5
		c34.7,0,41-18,50.1-39.5c19.7-44.6,103.2-206,115-232.9C815,115.4,804.5,88.4,769,88.4"/>
</g>
</svg>
